<svg xmlns="http://www.w3.org/2000/svg" xmlns:xlink="http://www.w3.org/1999/xlink" width="200" zoomAndPan="magnify" viewBox="0 0 150 74.999997" height="100" preserveAspectRatio="xMidYMid meet" version="1.0">
  <defs>
    <clipPath id="9c0f6f211d">
      <path stroke="#4c9f97" stroke-width="2" fill="transparent" d="M 3.753906 11.128906 L 40.710938 11.128906 L 40.710938 63.742188 L 3.753906 63.742188 Z M 3.753906 11.128906 " clip-rule="nonzero" />
    </clipPath>
    <clipPath id="cba33ec3db">
      <path stroke="#4c9f97" stroke-width="2" fill="transparent" d="M 39.292969 26.59375 L 35.875 26.59375 L 35.875 24.984375 C 35.875 24.257812 35.285156 23.667969 34.558594 23.667969 C 34.097656 23.667969 33.667969 23.914062 33.433594 24.308594 C 32.546875 25.785156 32.011719 26.597656 31.148438 27.394531 L 31.148438 20.253906 C 31.148438 16.554688 28.570312 15.042969 26.082031 13.585938 C 25.054688 12.984375 23.992188 12.359375 23.015625 11.554688 C 22.539062 11.164062 21.855469 11.15625 21.371094 11.535156 C 20.375 12.308594 19.339844 12.914062 18.34375 13.496094 C 15.820312 14.972656 13.210938 16.492188 13.210938 20.253906 L 13.210938 27.394531 C 12.347656 26.597656 11.808594 25.785156 10.925781 24.308594 C 10.691406 23.914062 10.257812 23.671875 9.796875 23.671875 C 9.074219 23.671875 8.484375 24.257812 8.484375 24.984375 L 8.484375 26.59375 L 5.066406 26.59375 C 4.339844 26.59375 3.753906 27.183594 3.753906 27.90625 L 3.753906 51.0625 C 3.753906 51.503906 3.972656 51.914062 4.339844 52.15625 L 21.453125 63.523438 C 21.671875 63.667969 21.925781 63.742188 22.179688 63.742188 C 22.429688 63.742188 22.683594 63.667969 22.90625 63.523438 L 40.015625 52.15625 C 40.382812 51.914062 40.605469 51.503906 40.605469 51.0625 L 40.605469 27.90625 C 40.605469 27.183594 40.015625 26.59375 39.289062 26.59375 M 15.839844 20.253906 C 15.839844 18.097656 17.082031 17.277344 19.664062 15.769531 C 20.441406 15.316406 21.296875 14.816406 22.160156 14.214844 C 23.046875 14.851562 23.941406 15.378906 24.75 15.851562 C 27.226562 17.304688 28.519531 18.15625 28.519531 20.253906 L 28.519531 44.289062 L 22.179688 48.207031 L 15.839844 44.289062 Z M 20.867188 59.980469 L 6.378906 50.359375 L 6.378906 29.21875 L 8.484375 29.21875 L 8.484375 48.042969 C 8.484375 48.496094 8.714844 48.914062 9.101562 49.15625 L 20.867188 56.523438 Z M 22.179688 54.242188 L 11.109375 47.3125 L 11.109375 29.019531 C 11.667969 29.578125 12.335938 30.105469 13.210938 30.726562 L 13.210938 45.019531 C 13.210938 45.476562 13.449219 45.898438 13.835938 46.136719 L 21.488281 50.867188 C 21.699219 51 21.9375 51.0625 22.179688 51.0625 C 22.417969 51.0625 22.65625 51 22.867188 50.867188 L 30.523438 46.136719 C 30.910156 45.898438 31.144531 45.476562 31.144531 45.019531 L 31.144531 30.726562 C 32.023438 30.109375 32.691406 29.578125 33.246094 29.019531 L 33.246094 47.3125 Z M 37.976562 40.289062 L 37.976562 50.359375 L 23.492188 59.980469 L 23.492188 56.519531 L 35.257812 49.15625 C 35.640625 48.914062 35.875 48.496094 35.875 48.042969 L 35.875 29.222656 L 37.976562 29.222656 Z M 37.976562 40.289062 " clip-rule="nonzero" />
    </clipPath>
    <clipPath id="1c2d1a3519">
      <path stroke="#4c9f97" stroke-width="2" fill="transparent" d="M 44.207031 26.59375 L 60.519531 26.59375 L 60.519531 29.320312 L 44.207031 29.320312 Z M 49.636719 29.320312 L 55.09375 29.320312 L 55.09375 51.0625 L 49.636719 51.0625 Z M 49.636719 29.320312 " clip-rule="nonzero" />
    </clipPath>
    <clipPath id="0bc29a07fa">
      <path stroke="#4c9f97" stroke-width="2" fill="transparent" d="M 62.320312 26.53125 L 78.636719 26.53125 L 78.636719 51.0625 L 62.320312 51.0625 Z M 62.320312 26.53125 " clip-rule="nonzero" />
    </clipPath>
    <clipPath id="75d59e778c">
      <path stroke="#4c9f97" stroke-width="2" fill="transparent" d="M 62.320312 51.0625 L 62.320312 32.023438 C 62.320312 30.539062 62.855469 29.257812 63.921875 28.195312 C 64.988281 27.128906 66.265625 26.59375 67.75 26.59375 L 73.203125 26.59375 C 74.691406 26.59375 75.96875 27.128906 77.035156 28.199219 C 78.101562 29.269531 78.632812 30.542969 78.632812 32.023438 L 78.632812 51.0625 L 73.203125 51.0625 L 73.203125 40.179688 L 67.75 40.179688 L 67.75 51.0625 Z M 67.75 37.476562 L 73.203125 37.476562 L 73.203125 32.023438 C 73.203125 31.285156 72.9375 30.648438 72.394531 30.117188 C 71.855469 29.585938 71.21875 29.324219 70.476562 29.324219 C 69.730469 29.324219 69.089844 29.585938 68.550781 30.117188 C 68.015625 30.648438 67.75 31.285156 67.75 32.023438 Z M 67.75 37.476562 " clip-rule="nonzero" />
    </clipPath>
    <clipPath id="67e4575475">
      <path stroke="#4c9f97" stroke-width="2" fill="transparent" d="M 93.121094 26.59375 L 98.550781 26.59375 L 98.550781 37.476562 L 93.121094 37.476562 Z M 82.238281 26.59375 L 87.667969 26.59375 L 87.667969 37.476562 L 82.238281 37.476562 Z M 82.238281 37.476562 L 98.550781 37.476562 L 98.550781 40.179688 L 82.238281 40.179688 Z M 82.238281 40.179688 L 87.667969 40.179688 L 87.667969 51.0625 L 82.238281 51.0625 Z M 93.121094 40.179688 L 98.550781 40.179688 L 98.550781 51.0625 L 93.121094 51.0625 Z M 93.121094 40.179688 " clip-rule="nonzero" />
    </clipPath>
    <clipPath id="fd36721ab9">
      <path stroke="#4c9f97" stroke-width="2" fill="transparent" d="M 102.152344 26.59375 L 115.738281 26.59375 L 115.738281 29.320312 L 102.152344 29.320312 Z M 102.152344 29.320312 L 107.582031 29.320312 L 107.582031 37.476562 L 102.152344 37.476562 Z M 102.152344 37.476562 L 113.035156 37.476562 L 113.035156 40.179688 L 102.152344 40.179688 Z M 102.152344 40.179688 L 107.582031 40.179688 L 107.582031 51.0625 L 102.152344 51.0625 Z M 102.152344 40.179688 " clip-rule="nonzero" />
    </clipPath>
    <clipPath id="1f2aadce25">
      <path stroke="#4c9f97" stroke-width="2" fill="transparent" d="M 119.339844 26.59375 L 124.78125 26.59375 L 124.78125 51.0625 L 119.339844 51.0625 Z M 119.339844 26.59375 " clip-rule="nonzero" />
    </clipPath>
    <clipPath id="63e01f4971">
      <path stroke="#4c9f97" stroke-width="2" fill="transparent" d="M 129.933594 26.59375 L 146.246094 26.59375 L 146.246094 51.0625 L 129.933594 51.0625 Z M 129.933594 26.59375 " clip-rule="nonzero" />
    </clipPath>
    <clipPath id="0488652316">
      <path stroke="#4c9f97" stroke-width="2" fill="transparent" d="M 129.933594 26.59375 L 146.246094 26.59375 L 146.246094 29.320312 L 135.363281 48.335938 L 146.246094 48.335938 L 146.246094 51.0625 L 129.933594 51.0625 L 129.933594 48.335938 L 140.820312 29.320312 L 129.933594 29.320312 Z M 129.933594 26.59375 " clip-rule="nonzero" />
    </clipPath>
  </defs>
  <g clip-path="url(#9c0f6f211d)">
    <g clip-path="url(#cba33ec3db)">
      <path stroke="#4c9f97" stroke-width="2" fill="transparent" d="M 3.753906 11.257812 L 40.582031 11.257812 L 40.582031 63.742188 L 3.753906 63.742188 Z M 3.753906 11.257812 " fill-opacity="1" fill-rule="nonzero" />
    </g>
  </g>
  <g clip-path="url(#1c2d1a3519)">
    <path stroke="#4c9f97" stroke-width="2" fill="transparent" d="M 44.207031 26.59375 L 60.519531 26.59375 L 60.519531 51.0625 L 44.207031 51.0625 Z M 44.207031 26.59375 " fill-opacity="1" fill-rule="nonzero" />
  </g>
  <g clip-path="url(#0bc29a07fa)">
    <g clip-path="url(#75d59e778c)">
      <path stroke="#4c9f97" stroke-width="2" fill="transparent" d="M 62.320312 26.59375 L 78.636719 26.59375 L 78.636719 51.0625 L 62.320312 51.0625 Z M 62.320312 26.59375 " fill-opacity="1" fill-rule="nonzero" />
    </g>
  </g>
  <g clip-path="url(#67e4575475)">
    <path stroke="#4c9f97" stroke-width="2" fill="transparent" d="M 82.238281 26.59375 L 98.550781 26.59375 L 98.550781 51.0625 L 82.238281 51.0625 Z M 82.238281 26.59375 " fill-opacity="1" fill-rule="nonzero" />
  </g>
  <g clip-path="url(#fd36721ab9)">
    <path stroke="#4c9f97" stroke-width="2" fill="transparent" d="M 102.152344 26.59375 L 115.738281 26.59375 L 115.738281 51.058594 L 102.152344 51.058594 Z M 102.152344 26.59375 " fill-opacity="1" fill-rule="nonzero" />
  </g>
  <g clip-path="url(#1f2aadce25)">
    <path stroke="#4c9f97" stroke-width="2" fill="transparent" d="M 119.339844 26.59375 L 124.78125 26.59375 L 124.78125 51.058594 L 119.339844 51.058594 Z M 119.339844 26.59375 " fill-opacity="1" fill-rule="nonzero" />
  </g>
  <g clip-path="url(#63e01f4971)">
    <g clip-path="url(#0488652316)">
      <path stroke="#4c9f97" stroke-width="2" fill="transparent" d="M 129.933594 26.59375 L 146.246094 26.59375 L 146.246094 51.0625 L 129.933594 51.0625 Z M 129.933594 26.59375 " fill-opacity="1" fill-rule="nonzero" />
    </g>
  </g>
</svg>